<?xml version="1.0" encoding="UTF-8"?>
<!DOCTYPE svg PUBLIC "-//W3C//DTD SVG 1.1//EN" "http://www.w3.org/Graphics/SVG/1.1/DTD/svg11.dtd">
<!-- Creator: CorelDRAW 2018 (64-Bit) -->
<svg xmlns="http://www.w3.org/2000/svg" xml:space="preserve" width="5.19677in" height="2.09006in" version="1.1" style="shape-rendering:geometricPrecision; text-rendering:geometricPrecision; image-rendering:optimizeQuality; fill-rule:evenodd; clip-rule:evenodd"
viewBox="0 0 5196.77 2090.06"
 xmlns:xlink="http://www.w3.org/1999/xlink">
 <defs>
  <style type="text/css">
   <![CDATA[
    .fil7 {fill:#FEFEFE}
    .fil9 {fill:#ED3237}
    .fil8 {fill:#0072B6}
    .fil5 {fill:#1A4DA1}
    .fil4 {fill:#F48020}
    .fil0 {fill:#373435;fill-rule:nonzero}
    .fil6 {fill:white;fill-rule:nonzero}
    .fil2 {fill:url(#id0)}
    .fil1 {fill:url(#id1)}
    .fil3 {fill:url(#id2)}
   ]]>
  </style>
  <linearGradient id="id0" gradientUnits="userSpaceOnUse" x1="1022.54" y1="1091.45" x2="1022.59" y2="1091.55">
   <stop offset="0" style="stop-opacity:1; stop-color:#FDBA24"/>
   <stop offset="0.298039" style="stop-opacity:1; stop-color:#EB8123"/>
   <stop offset="0.6" style="stop-opacity:1; stop-color:#F37A20"/>
   <stop offset="1" style="stop-opacity:1; stop-color:#D94721"/>
  </linearGradient>
  <linearGradient id="id1" gradientUnits="userSpaceOnUse" xlink:href="#id0" x1="1030.52" y1="911.62" x2="1030.89" y2="912.04">
  </linearGradient>
  <linearGradient id="id2" gradientUnits="userSpaceOnUse" xlink:href="#id0" x1="1021.39" y1="1091.74" x2="1022.39" y2="1093.76">
  </linearGradient>
 </defs>
 <g id="Layer_x0020_1">
  <metadata id="CorelCorpID_0Corel-Layer"/>
  <path class="fil0" d="M2510.98 855.4c14.49,5.1 25.69,12.35 33.26,21.74 7.74,9.39 11.2,18.94 10.38,28.33 -0.66,10.87 -5.27,20.42 -13.67,28.82 -8.4,8.4 -20.92,14.33 -37.55,17.95l-160.57 1.15c0,86.63 0.16,173.58 0.49,260.54 0.33,87.12 0.5,174.07 0.5,260.7 -0.66,18.94 -6.75,32.77 -17.95,41.5 -11.2,8.73 -23.39,13.18 -36.4,13.18 -12.35,0 -23.71,-4.12 -34.25,-12.52 -10.54,-8.4 -16.8,-21.08 -18.94,-37.72l-1.15 -525.85 -162.71 0c-18.12,-3.62 -31.46,-10.21 -39.85,-19.6 -8.4,-9.39 -12.19,-19.93 -11.37,-31.62 0.66,-11.53 5.76,-22.07 15.15,-31.46 9.55,-9.39 24.37,-14.16 44.8,-14.16 76.41,0 140.48,0 192.02,0 51.55,0 93.71,-0.17 126.48,-0.5 32.77,-0.33 57.64,-0.49 74.77,-0.49 17.13,0 29.31,0 36.56,0zm458.98 601.27c4.28,10.87 5.27,21.24 2.8,31.13 -2.63,9.72 -7.74,17.79 -15.31,24.05 -7.74,6.09 -17.29,9.72 -28.98,10.87 -11.53,1.15 -23.88,-1.65 -37.06,-8.23 -5.76,-5.76 -11.36,-11.86 -16.96,-17.95 -5.43,-6.26 -9.88,-12.19 -13.5,-18.11 -26.19,19.76 -50.89,32.28 -73.78,37.71 -22.89,5.44 -47.76,8.24 -74.77,8.24 -19.6,0 -38.7,-1.98 -57.31,-5.93 -18.61,-4.12 -37.39,-12.35 -56.32,-24.7 -27.67,-19.6 -47.27,-42.98 -58.96,-69.83 -11.53,-27.01 -17.46,-55.33 -17.46,-85.31 0,-30.47 4.61,-59.45 13.67,-86.79 9.06,-27.34 21.74,-52.87 37.72,-76.41 15.97,-23.72 34.42,-45.46 55.17,-65.06 20.75,-19.59 43.15,-37.05 67.03,-52.37 5.11,-2.96 12.35,-6.26 21.41,-9.88 9.06,-3.62 19.43,-7.08 31.13,-10.37 11.53,-3.3 23.55,-5.76 36.07,-7.57 12.35,-1.81 24.37,-2.8 35.9,-2.8 22.56,0 42.82,2.8 60.61,8.23 17.95,5.44 30.8,18.78 38.7,39.85 0,21.91 0,40.02 0,54.68 0,14.49 -0.17,26.68 -0.5,36.56 -0.33,9.72 -0.49,17.95 -0.49,24.54 0,6.59 0,12.68 0,18.61 0,25.36 0.66,51.88 2.14,79.22 1.48,27.17 3.95,54.02 7.57,80.2 1.48,8.07 4.94,17.46 10.37,28.49 5.44,10.87 11.04,20.75 16.96,29.48l-1.15 0c5.11,7.91 9.39,14.49 12.52,19.59 3.3,5.11 4.28,8.4 2.8,9.88zm-148.06 -77.9c-5.76,-25.52 -9.39,-51.87 -10.7,-79.21 -1.48,-27.34 -2.14,-54.35 -2.14,-81.35 0,-18.94 0.33,-36.07 0.99,-51.39 0.66,-15.15 0.99,-30.14 0.99,-44.63 -12.19,1.32 -24.7,4.61 -37.39,9.72 -12.85,5.11 -21.74,8.73 -26.84,11.04 -19.6,8.73 -37.22,21.08 -52.87,37.06 -15.65,15.97 -28.66,33.93 -38.87,53.52 -10.21,19.6 -17.62,40.18 -22.4,61.59 -4.61,21.57 -5.27,42.49 -1.65,62.91 2.3,15.97 7.91,29.31 16.96,39.85 9.06,10.54 19.93,18.44 32.28,24.04 12.35,5.43 25.69,8.07 39.85,8.07 14.16,0 27.83,-2.14 40.84,-6.43 16.14,-9.55 36.4,-24.54 60.93,-44.8zm496.87 91.4c0,-45.78 0,-84.48 0,-115.78 0,-31.29 0,-57.47 0,-78.56 0,-21.24 0,-37.55 0,-49.24 0,-11.69 0,-20.75 0,-27.34 0,-6.59 0,-11.2 0,-14.16 0,-2.96 0,-5.77 0,-8.73 -8.07,-19.76 -20.09,-35.24 -36.07,-46.44 -16.14,-11.36 -33.93,-15.81 -53.69,-13.67 -7.24,0.66 -13.5,2.14 -18.61,4.45 -5.1,2.14 -10.21,5.43 -15.31,9.72 -5.11,4.44 -10.7,10.21 -16.96,17.62 -6.09,7.24 -13.67,16.3 -22.4,27.34l0 296.44c-0.66,18.11 -6.75,31.62 -17.95,40.35 -11.2,8.73 -23.39,13.18 -36.4,13.18 -12.35,0 -23.88,-3.95 -34.25,-12.02 -10.54,-8.07 -16.96,-20.42 -19.11,-37.22l0 -418.8c8.73,-29.81 26.52,-44.8 53.52,-44.8 10.05,0 19.6,2.47 28.33,7.41 8.73,4.78 15.65,12.68 20.75,23.72 10.87,-6.59 23.71,-12.52 38.7,-17.62 14.82,-5.11 30.63,-7.57 47.43,-7.57 26.19,0 52.54,5.76 79.05,17.46 26.68,11.69 48.58,27.01 66.04,45.95 7.25,-7.41 15.48,-14.82 24.54,-22.4 9.06,-7.74 18.61,-14.66 28.33,-20.75 9.88,-6.26 20.09,-11.36 30.63,-15.31 10.54,-3.95 21.24,-5.93 32.11,-5.93 23.39,0 46.28,3.95 68.84,12.02 22.56,7.9 42.82,18.77 61.1,32.11 18.11,13.5 32.61,29.15 43.64,46.93 10.87,17.79 16.3,36.89 16.3,57.31l0 301.05c-0.66,18.28 -6.75,31.62 -17.95,40.35 -11.2,8.73 -23.06,13.18 -35.41,13.18 -13.01,0 -24.7,-3.95 -34.91,-12.02 -10.05,-8.07 -16.31,-20.42 -18.44,-37.06l0 -294.95c-8.07,-22.56 -19.27,-38.37 -33.76,-47.43 -14.66,-9.06 -28.82,-13.67 -42.65,-13.67 -16.8,0 -31.62,4.45 -44.8,13.18 -13.01,8.73 -24.7,25.03 -34.91,49.07l1.15 288.37c-0.82,18.28 -6.59,31.62 -17.46,40.35 -10.87,8.73 -22.89,13.18 -36.07,13.18 -13.01,0 -24.7,-3.95 -34.75,-12.02 -10.21,-8.07 -16.47,-20.42 -18.61,-37.22zm601.6 -1.31c-0.82,18.28 -6.59,31.62 -17.46,40.35 -10.87,8.73 -22.89,13.18 -35.9,13.18 -13.01,0 -24.7,-3.95 -34.91,-12.02 -10.05,-8.07 -16.31,-20.42 -18.44,-37.06l-3.3 -415.01c3.62,-15.15 10.21,-26.68 19.6,-34.26 9.39,-7.74 20.75,-11.53 33.76,-11.53 11.69,0 22.56,3.46 32.61,10.37 10.21,6.92 17.13,17.62 20.75,32.11l3.3 413.86zm-117.75 -583.82c0,-16.8 5.93,-31.13 17.95,-43.15 12.02,-12.02 26.35,-18.11 43.15,-18.11 17.46,0 32.28,6.09 44.3,18.11 12.02,12.02 17.95,26.35 17.95,43.15 0,16.8 -5.93,31.13 -17.95,42.82 -12.02,11.69 -26.85,17.46 -44.3,17.46 -16.8,0 -31.13,-5.76 -43.15,-17.46 -12.02,-11.69 -17.95,-26.02 -17.95,-42.82zm381.09 563.4c18.94,13.83 28.49,28.49 28.49,43.81 0,8.73 -2.14,16.63 -6.59,24.04 -4.28,7.25 -10.21,13.01 -17.46,17.46 -7.24,4.28 -15.81,6.75 -25.69,7.08 -9.72,0.33 -20.09,-2.47 -30.96,-8.24l-46.93 -30.63c-6.59,-5.76 -11.04,-11.2 -13.18,-16.3 -2.14,-5.11 -3.95,-12.02 -5.43,-20.75l0 -598.31c3.62,-14.66 10.21,-25.69 19.6,-33.27 9.39,-7.74 20.26,-11.53 32.61,-11.53 12.35,0 23.22,3.46 32.77,10.37 9.39,6.92 16.63,17.3 21.74,31.13l0 578.71c1.48,1.48 3.3,2.64 5.44,3.79 2.3,1.15 4.11,1.97 5.6,2.63zm399.37 -64.06c5.76,-5.76 12.35,-9.72 19.6,-11.86 7.25,-2.14 14.49,-3.3 21.91,-3.3 14.49,0 26.51,4.61 35.9,13.67 9.55,9.06 14.33,19.76 14.33,32.11 0,12.19 -5.6,25.03 -16.47,38.04 -20.42,22.4 -43.97,39.2 -70.98,50.07 -26.84,10.87 -54.84,16.3 -83.99,16.3 -18.94,0 -37.71,-2.47 -56.32,-7.57 -18.44,-5.11 -35.9,-13.01 -52.37,-23.55 -16.3,-10.54 -30.96,-23.39 -44.13,-38.7 -13.01,-15.32 -23.22,-33.1 -30.47,-53.52l0 1.15c-18.12,-41.5 -25.36,-83.66 -21.74,-126.64 2.14,-30.47 8.89,-61.26 20.09,-92.23 11.36,-30.96 26.68,-59.12 46.28,-84.65 19.6,-25.36 43.15,-46.11 70.32,-62.09 27.34,-15.97 57.31,-24.04 90.08,-24.04 10.21,0 20.09,0.5 29.48,1.65 9.55,0.99 19.27,3.46 29.48,7.08 20.42,7.25 38.87,15.65 55.17,25.03 16.47,9.39 32.94,22.4 49.74,39.2 7.24,12.35 10.87,22.73 10.87,31.46 0,9.55 -2.14,17.95 -6.59,25.2 -4.28,7.24 -10.37,12.68 -17.95,16.3 -7.58,3.62 -16.8,5.27 -27.34,4.94 -10.54,-0.33 -21.57,-3.46 -33.27,-9.22 -15.31,-15.97 -29.97,-27.5 -44.3,-34.42 -14.16,-6.92 -27.83,-10.37 -40.84,-10.37 -17.46,0 -33.93,5.27 -49.07,15.81 -15.31,10.54 -28.49,24.7 -39.36,42.16 -10.87,17.46 -19.76,37.06 -26.19,58.96 -6.59,21.91 -9.88,44.14 -9.88,66.7 0,12.35 0.99,24.7 2.8,37.22 1.81,12.35 5.27,24.05 10.37,34.92 9.39,21.9 21.74,37.88 37.06,48.09 15.31,10.21 31.29,15.31 48.09,15.31 12.35,0 25.36,-3.29 39.2,-9.72 13.83,-6.59 27.01,-16.3 39.36,-29.48l1.15 0zm177.04 42.32c-10.21,-21.08 -10.54,-38.87 -0.66,-53.03 9.88,-14.17 24.21,-21.24 43.15,-21.24 12.35,0 25.86,4.78 40.35,14.16 15.31,20.42 33.59,37.55 54.68,51.38 21.08,13.83 43.31,18.44 66.53,14.17 11.04,-2.14 20.59,-6.43 28.98,-12.52 8.4,-6.26 14.5,-13.34 18.61,-21.41 3.95,-7.9 5.93,-16.63 5.93,-26.19 0,-9.39 -2.47,-18.11 -7.57,-26.19 -6.59,-10.21 -13.67,-18.11 -21.41,-24.04 -7.57,-5.76 -15.65,-10.21 -23.88,-13.01 -8.4,-2.96 -16.47,-5.1 -24.05,-6.59 -7.74,-1.48 -14.82,-3.29 -21.41,-5.43 -10.87,-2.96 -21.74,-6.09 -32.61,-9.22 -11.04,-3.29 -21.57,-7.57 -31.78,-12.68 -10.21,-5.1 -19.93,-11.36 -29.48,-19.1 -9.39,-7.57 -18.44,-17.29 -27.17,-28.82 -8.07,-11.04 -14.33,-22.89 -18.61,-35.57 -4.44,-12.68 -6.59,-24.54 -6.59,-35.41 0,-15.32 2.96,-30.96 8.73,-46.94 5.76,-16.14 13.67,-30.8 23.55,-44.3 9.72,-13.5 21.41,-25.03 34.91,-34.91 13.5,-9.88 27.83,-16.63 43.15,-20.26 30.47,-7.91 62.42,-9.06 95.52,-3.3 33.1,5.93 62.75,16.14 88.93,30.63 10.21,7.25 17.78,14.99 22.89,22.89 5.11,8.07 7.74,15.65 7.74,22.89 0,8.73 -2.47,16.63 -7.08,23.55 -4.78,6.92 -11.03,12.52 -18.61,16.96 -7.58,4.28 -16.31,6.43 -26.19,6.43 -9.88,0 -20.26,-2.8 -31.13,-8.73 -8.73,-4.28 -20.91,-8.4 -36.56,-12.52 -15.65,-3.95 -31.13,-5.43 -46.44,-4.28 -15.31,0.99 -28,5.93 -38.21,14.66 -10.21,8.73 -14.16,23.39 -12.02,43.64 4.45,8.07 9.72,14.82 15.81,20.26 6.26,5.44 13.18,10.05 20.75,13.67 7.74,3.62 15.81,6.75 24.54,9.22 8.73,2.63 17.13,4.94 25.2,7.08 22.56,6.59 43.31,14 62.25,22.4 18.94,8.4 35.24,18.78 49.07,31.13 13.83,12.35 24.54,27.34 32.28,44.8 7.57,17.46 11.36,38.54 11.36,63.41 0,19.6 -4.28,38.7 -13.01,57.31 -8.73,18.44 -20.26,35.08 -34.42,49.57 -14.16,14.66 -30.47,26.19 -48.58,34.91 -18.28,8.73 -36.39,13.18 -54.68,13.18 -40.68,0 -80.37,-9.06 -118.9,-27.34 -38.7,-18.12 -69.5,-43.31 -92.89,-75.26l-0.99 0z"/>
  <path class="fil1" d="M1030.56 911.86l0.24 0.29 0.14 -0.06c-0.22,-0.14 -0.94,-0.89 -0.38,-0.23z"/>
  <polygon class="fil2" points="1022.52,1091.58 1022.6,1091.44 "/>
  <path class="fil3" d="M1022.52 1091.58l-1.57 2.52 0.01 0.18c0.11,-0.35 1.25,-2.19 1.56,-2.7z"/>
  <path class="fil4" d="M255.87 1879.19c-158.6,-167.7 -255.87,-393.99 -255.87,-643.03 0,-484.75 368.48,-883.44 840.62,-931.24l0 131.43 -308.62 0 0 139.35 95.93 0c2.76,3.87 5.88,8.18 9.39,12.97 7.11,9.73 14.65,19.81 22.02,29.3 6.64,8.53 9.98,12.93 13.62,17.7 30.56,40.13 75.41,99.04 118.85,130.61 4.73,11.05 10.07,24.09 14.87,37.18 5.33,14.54 9.68,28.32 10.94,37.39 1.85,13.28 3.24,30.56 3.53,48.63 0.21,12.77 -0.15,26.13 -1.3,38.98 -4.11,6.81 -4.67,12.94 -5.26,19.43 -0.07,0.76 0.81,0.01 0.33,0.79l-0.1 0.1c-4.05,6.59 -5.52,13.46 -5.14,20.28 0.09,1.62 0.29,3.2 0.59,4.74l-1.13 3.3c-12.45,36.03 -26.02,75.31 -4.41,150.47 6.18,21.48 12.96,41.6 19.57,59.52 5.44,14.74 11.11,28.71 16.3,40.87l0 177.77 -230.11 203.82 -138.24 72.19 -149.3 170.73 -67.11 26.74z"/>
  <path class="fil5" d="M983.88 301.32c494.74,24.9 888.23,433.92 888.23,934.85 0,266.63 -111.47,507.22 -290.36,677.71l-31.52 -16.55 -144.53 -140.28 -8.09 -1.31c-0.02,-0 -2.41,0.59 -245.51,-130.93l-157.57 -150 -4.98 -23.1c-0.01,-0.04 -2.47,-11.82 -5.67,-28.63l0 -291.26 2.92 16.92 34.15 -54.63 0.01 0.18c-0.01,0.04 -0.01,0.06 0,0.06 26.81,-1.91 34.54,-18.12 38.28,-25.96l0 -0.03c5.57,-10.11 2.95,-20.14 -0.3,-32.58 -1.58,-6.06 -3.48,-13.32 -4.02,-18.35 -0.33,-3.15 -0.33,-6.65 -0.33,-10.22 0.02,-13.9 0.04,-28.37 -9.12,-43.24l-0.04 0.03c-2.12,-3.44 -4.44,-6.6 -6.82,-9.49 0.39,-3.32 0.52,-6.33 0.52,-9.04 0,-1 0.08,-1.57 0.15,-2.09 1.39,-10.38 2.44,-18.2 -8.48,-31.22l0.14 -0.06c0.05,0.03 0.07,0.03 0.05,-0.02 -4.13,-9.79 -7.67,-18.17 -17.2,-21.36 0.15,-3.85 0.36,-7.9 0.64,-12.2 1.01,-15.69 2.92,-33.88 6.36,-55.68 1.61,-10.22 4.86,-25.51 8.48,-41.42 2.67,-11.74 5.7,-24.32 8.42,-35.42 9.6,-6.84 18.72,-14.04 26.93,-21.52 10,-9.11 18.89,-18.79 26.04,-28.96 11.39,-16.21 25.87,-35.61 40.51,-54.76 18.37,-24.04 37.35,-48.15 50.78,-65.06l110.56 0 0 -139.35 -308.62 0 0 -135.03z"/>
  <path class="fil6" d="M1534.53 686.16c63.69,60.07 113.29,135.92 147.03,218.47 33.67,82.69 50.91,172.58 50.95,262.36 0.04,89.78 -17.2,179.69 -50.88,262.39 -33.72,82.57 -83.36,158.42 -147.1,218.44 45.13,-74.82 81.37,-152.34 105.28,-233.21 24.13,-80.7 36.19,-164.09 36.31,-247.61 -0.04,-83.53 -12.11,-166.93 -36.24,-247.64 -23.9,-80.88 -60.18,-158.42 -105.35,-233.19z"/>
  <path class="fil6" d="M1423.27 819.66c45.72,43.37 80.5,98.47 104.27,158.09 23.65,59.76 35.72,124.55 35.75,189.24 0.04,64.69 -12.04,129.49 -35.68,189.26 -23.76,59.63 -58.57,114.74 -104.35,158.07 26.38,-57.06 48.03,-113.61 62.13,-171.67 14.31,-57.9 21.41,-116.72 21.51,-175.67 -0.02,-58.94 -7.13,-117.78 -21.43,-175.69 -14.08,-58.07 -35.77,-114.62 -62.2,-171.64z"/>
  <path class="fil6" d="M327.83 686.16c-63.69,60.07 -113.29,135.92 -147.03,218.47 -33.67,82.69 -50.91,172.58 -50.95,262.36 -0.04,89.78 17.2,179.69 50.88,262.39 33.73,82.57 83.36,158.42 147.1,218.44 -45.12,-74.82 -81.37,-152.34 -105.28,-233.21 -24.13,-80.7 -36.19,-164.09 -36.31,-247.61 0.04,-83.53 12.11,-166.93 36.24,-247.64 23.9,-80.88 60.18,-158.42 105.35,-233.19z"/>
  <path class="fil6" d="M439.09 819.66c-45.72,43.37 -80.5,98.47 -104.28,158.09 -23.64,59.76 -35.72,124.55 -35.75,189.24 -0.04,64.69 12.04,129.49 35.68,189.26 23.75,59.63 58.57,114.74 104.35,158.07 -26.38,-57.06 -48.03,-113.61 -62.13,-171.67 -14.3,-57.9 -21.41,-116.72 -21.51,-175.67 0.02,-58.94 7.13,-117.78 21.44,-175.69 14.08,-58.07 35.77,-114.62 62.2,-171.64z"/>
  <path class="fil7" d="M680.88 1053.65c-10.95,-6.79 -23.58,-10.76 -36.35,-11.9l0 -65.92c4.37,-3.74 8.63,-7.48 12.7,-11.22 21.82,-19.78 45.37,-42.81 51.25,-73.37 14.09,-83.48 -92.43,-103.83 -89.27,5.48l-0.01 0 0 57.85c-43.02,34.91 -93.67,73.28 -107.51,129.93 -17.97,77.88 33.08,134.89 107.51,139.7l0 63.89c0,20.21 -16.44,36.66 -36.66,36.66 -2.05,0 -4.06,-0.18 -6.02,-0.51 13.77,-6.23 23.38,-20.08 23.38,-36.15 0,-21.87 -17.8,-39.67 -39.67,-39.67 -21.87,0 -39.67,17.8 -39.67,39.67 0,34.18 27.81,61.99 61.99,61.99 34.18,0 61.98,-27.81 61.98,-61.99l0 -64.63c82.7,-12.02 111.91,-122.62 36.35,-169.8zm-29.31 -192.51c3.28,-6.58 8.84,-13.47 16.3,-10.49 12.07,5.93 13.63,22.09 10.89,34.65 -0.23,0.89 -0.41,1.85 -0.67,2.68 -3.84,13.47 -12.48,23.98 -22.39,34.4 -3.54,3.65 -7.3,7.22 -11.19,10.75l0 -36.41 -0.02 0c0.43,-12.52 1.85,-24.73 7.06,-35.57zm-67.15 317.27c-34.37,-15.85 -46.83,-50 -38.78,-85.87 9.75,-39.15 41.49,-68.44 73.57,-95.44l0 46.18c-20.78,4.56 -39.04,17.37 -47.32,38.73 12.3,-7.74 23.61,-12.97 37.03,-15.73 2.07,-0.35 4.09,-0.74 6.13,-0.99l1.52 -0.21c0.85,-0.04 1.75,-0.13 2.63,-0.22l0 123.24c-12.46,-1.44 -24.81,-5.08 -34.78,-9.69zm68.48 6.85c-2.67,0.96 -5.48,1.7 -8.37,2.26l0 -120.65c22.33,6.14 40.74,23.62 46.15,47.01 7.38,29.44 -9.06,61.33 -37.78,71.38z"/>
  <path class="fil8" d="M43.76 2006.97l294.52 -117.34 150.21 -171.77 136.74 -71.4 213.37 -188.99 27.83 -24.65 0 -212.9c-10.61,-24.47 -24.87,-60.63 -36.88,-102.42 -21.81,-75.83 -3.8,-110.91 7.91,-146.87 -2.16,-3.51 -3.02,-7.59 -0.65,-11.46 5.81,-9.42 0.79,-16.69 7.95,-23.94 3.94,-34.36 1.96,-75.09 -1.63,-100.93 -3.11,-22.39 -19.35,-62.23 -30.62,-88 -48.5,-32.22 -103.06,-108.94 -132.8,-147.19 -15.72,-20.21 -29.13,-38.88 -38.44,-52.25l-83.45 0 0 -87.73 308.62 0 0 -191.12 91.64 0 0 191.12 308.62 0 0 87.73 -97.13 0c-21.57,27.04 -71.01,89.58 -99.98,130.8 -12.74,18.13 -32.79,35.05 -54.56,49.71 -6.29,25.3 -16.11,66.17 -19.64,88.5 -7.26,46.01 -7.98,75.58 -7.58,99.2 3.13,-1.3 6.35,-1.62 9.53,-2.22 10.18,-1.94 8.24,6.3 13.57,12.61 5.33,6.29 2.43,9.69 2.43,16.96 0,5.16 -0.54,11.27 -3.24,16.47 4.54,4.17 9.77,9.61 13.41,15.54 7.76,12.62 4.36,29.1 5.81,42.67 1.46,13.59 8.74,33.46 7.28,35.89 -1.45,2.42 -3.88,11.64 -17.45,12.61 -13.57,0.97 -18.42,9.21 -18.42,9.21 0,0 -2.44,-14.54 -5.34,-26.18 -2.91,-11.64 1.46,-35.4 5.83,-53.34 3.07,-12.67 -0.38,-18.79 -4.04,-24.2 -3.12,2.08 -6.52,4 -10,5.49 -2.09,18.19 -7.03,39.21 -17.97,69.15 -2.35,6.43 -6.59,16.5 -11.13,27.68l0 348.71c3.62,19.18 6.27,31.91 6.27,31.91l-6.27 -0.21 0 37.43 178.79 170.22c249.88,135.2 256.7,135.29 256.7,135.29l141.32 137.16 139.19 73.07 -1630.31 0zm645.2 -1460.1c21.24,25.02 55.62,65.36 80.94,94.43 12.38,14.22 25.49,25.67 38.58,34.72 -2.53,-11.7 -3.7,-32.35 14.16,-46.36 15.93,-12.48 29.61,-12.24 43.8,-4.56l0 -78.23 -177.47 0zm269.11 159.12c6.24,-1.16 11.97,-3.19 16.95,-6.5 19.66,-13.11 113.77,-99.47 154.53,-152.61l-171.48 0 0 159.12z"/>
  <path class="fil7" d="M1288.14 953.99c-0.03,-0.46 -0.05,-0.93 -0.07,-1.4 -0.29,-8.63 -6.48,-15.91 -14.97,-17.45l-0.73 -0.13c-9.09,-1.64 -18,3.77 -20.66,12.62 -1,3.33 -1.94,6.67 -2.84,10.02 -19.52,73.26 -14.51,150.94 -24.07,225.99 -0.01,0.05 -0.07,0.07 -0.11,0.04 -14.19,-14.39 -36.78,-22.68 -61.37,-20.52 -39.41,3.46 -69.06,32.45 -66.22,64.75 2.83,32.3 37.08,55.68 76.5,52.22 11.24,-0.99 21.69,-4.06 30.81,-8.68 9.56,-4.85 18.23,-11.69 24.66,-20.31 10.45,-13.99 12.52,-34.2 15.78,-50.87 4.02,-20.6 6.73,-41.43 9,-62.28 4.48,-41.31 7.15,-82.87 14.55,-123.81 0.01,-0.06 0.09,-0.07 0.12,-0.02 37.03,66.85 106.05,136.97 23.34,193.65 -0.06,0.04 -0.01,0.14 0.06,0.11 145.11,-70.66 1.78,-168.25 -3.79,-253.93z"/>
  <path class="fil7" d="M773.62 1789c-0.3,-10.33 -1.17,-20.63 -1.96,-30.93 -0.99,-12.79 -1.62,-70.07 -1.62,-70.07 -33.72,5.61 -75.8,44.84 -109.52,44.84 -2.17,5.22 -1.21,29.95 -1.19,29.95 0.2,25.93 5.67,51.88 6.89,77.81 -6.76,-4.83 -16.5,-6.59 -26.3,-3.96 -15.69,4.2 -25.61,18.02 -22.17,30.87 3.44,12.85 18.94,19.87 34.63,15.67 4.47,-1.2 8.48,-3.18 11.84,-5.7 4.93,-3.69 8.47,-8.54 10.06,-13.77 2.74,-8.96 1.42,-20.3 1.14,-29.6 -0.3,-10.33 -1.17,-20.63 -1.96,-30.93 -1.08,-13.99 -2.07,-28.09 -1.46,-42.12 28.17,-6.96 57.42,-32.96 85.59,-39.85 0.63,24.74 5.67,49.5 6.83,74.25 -6.76,-4.83 -16.5,-6.59 -26.3,-3.96 -15.69,4.2 -25.61,18.02 -22.17,30.88 3.44,12.85 18.94,19.87 34.63,15.67 4.47,-1.2 8.48,-3.18 11.84,-5.7 4.93,-3.69 8.47,-8.54 10.06,-13.76 2.74,-8.96 1.42,-20.3 1.14,-29.6z"/>
  <path class="fil7" d="M1071.41 1798.98c-5.47,-3.39 -11.77,-5.37 -18.15,-5.94l0 -32.9c2.18,-1.87 4.31,-3.73 6.34,-5.6 10.89,-9.87 22.65,-21.37 25.58,-36.62 7.04,-41.67 -46.13,-51.82 -44.56,2.74l-0.01 0 0 28.87c-21.47,17.43 -46.75,36.57 -53.66,64.85 -8.97,38.87 16.52,67.33 53.66,69.73l0 31.89c0,10.09 -8.21,18.3 -18.3,18.3 -1.03,0 -2.03,-0.09 -3.01,-0.25 6.87,-3.11 11.67,-10.03 11.67,-18.05 0,-10.92 -8.88,-19.8 -19.8,-19.8 -10.92,0 -19.8,8.88 -19.8,19.8 0,17.06 13.88,30.94 30.94,30.94 17.06,0 30.94,-13.88 30.94,-30.94l0 -32.26c41.28,-6 55.86,-61.2 18.14,-84.75zm-14.63 -96.09c1.64,-3.28 4.41,-6.73 8.14,-5.24 6.02,2.96 6.8,11.03 5.44,17.3 -0.11,0.44 -0.2,0.93 -0.33,1.34 -1.91,6.72 -6.23,11.97 -11.17,17.17 -1.77,1.82 -3.64,3.61 -5.58,5.37l0 -18.17 -0.01 0c0.21,-6.25 0.93,-12.34 3.52,-17.76zm-33.52 158.36c-17.15,-7.91 -23.38,-24.95 -19.36,-42.86 4.86,-19.54 20.71,-34.17 36.72,-47.64l0 23.05c-10.38,2.28 -19.49,8.67 -23.62,19.33 6.14,-3.86 11.79,-6.47 18.48,-7.85 1.03,-0.17 2.04,-0.37 3.06,-0.49l0.76 -0.11c0.43,-0.02 0.87,-0.07 1.31,-0.11l0 61.52c-6.22,-0.72 -12.38,-2.54 -17.36,-4.84zm34.18 3.42c-1.33,0.48 -2.73,0.85 -4.18,1.13l0 -60.22c11.15,3.06 20.33,11.79 23.04,23.46 3.68,14.7 -4.52,30.61 -18.86,35.63z"/>
  <polygon class="fil9" points="920.32,0 946.56,81.3 1031.99,81.14 962.78,131.22 989.34,212.42 920.32,162.07 851.3,212.42 877.85,131.22 808.64,81.14 894.07,81.3 "/>
  <path class="fil0" d="M2383.05 1891.93c5.44,-4.5 11.67,-6.74 18.7,-6.74 6.09,0 11.31,1.89 15.66,5.73 4.28,3.84 6.45,8.85 6.45,14.94 0,2.25 -0.8,5.73 -2.39,10.51 -5.44,8.34 -11.53,16.53 -18.27,24.51 -6.74,8.05 -14.14,15.08 -22.33,21.17 -8.19,6.09 -17.26,10.95 -27.19,14.65 -9.93,3.7 -20.81,5.51 -32.7,5.51 -17.62,0 -33.78,-3.55 -48.5,-10.59 -14.72,-7.03 -27.41,-16.75 -37.92,-29.07 -10.52,-12.32 -18.71,-26.68 -24.44,-43.21 -5.73,-16.46 -8.63,-34.15 -8.63,-53.07 0,-13.12 1.74,-25.45 5.29,-36.98 4.79,-15.37 10.37,-28.86 16.75,-40.39 6.38,-11.53 14.07,-21.68 22.98,-30.45 8.99,-8.84 19.21,-16.67 30.74,-23.56 11.53,-6.89 24.87,-13.34 39.87,-19.43l-0.43 0c9.57,-4.2 18.49,-7.4 26.68,-9.65 8.12,-2.25 16.39,-3.33 24.72,-3.33 12.18,0 23.06,3.33 32.7,10.08 9.65,6.74 18.56,18.27 26.9,34.66 0.65,2.54 1.02,5.07 1.02,7.69 0,6.09 -2.18,11.02 -6.53,14.86 -4.35,3.84 -9.5,5.8 -15.59,5.8 -7.76,0 -14.79,-3.19 -21.17,-9.64 -4.5,-7.69 -8.05,-13.12 -10.58,-16.31 -2.54,-3.19 -5.44,-4.79 -8.63,-4.79 -1.96,0 -4.86,0.65 -8.7,1.89 -3.84,1.3 -7.98,2.76 -12.47,4.35l-7.69 2.9c-11.89,4.49 -23.06,10.07 -33.64,16.82 -10.58,6.67 -19.94,14.79 -28.13,24.22 -8.19,9.5 -14.65,20.37 -19.5,32.7 -4.78,12.32 -7.18,26.46 -7.18,42.48 0,11.24 1.59,22.19 4.78,32.92 3.19,10.73 7.98,20.3 14.21,28.78 6.24,8.48 13.85,15.3 22.84,20.45 8.99,5.15 19.21,7.69 30.74,7.69 6.74,0 13.05,-1.45 19,-4.35 5.94,-2.83 11.39,-6.53 16.31,-11.02 5,-4.5 9.64,-9.57 13.99,-15.15 4.28,-5.66 8.05,-11.31 11.24,-17.11l1.02 -0.43zm131.52 64.17c-0.65,7.69 -3.19,13.41 -7.69,17.26 -4.43,3.84 -9.72,5.8 -15.81,5.8 -5.44,0 -10.51,-1.74 -15.3,-5.29 -4.78,-3.48 -7.69,-8.77 -8.63,-15.81l0 -263.7c1.59,-6.45 4.5,-11.31 8.63,-14.65 4.13,-3.41 8.92,-5.07 14.36,-5.07 5.44,0 10.3,1.52 14.65,4.57 4.28,3.05 7.54,7.61 9.79,13.7l0.07 103.32c15.66,-10.88 29.8,-17.91 42.49,-21.1 12.61,-3.19 25.67,-2.61 39.08,1.89 9.93,2.9 18.42,7.61 25.45,14.21 7.04,6.53 12.83,14.07 17.48,22.55 4.64,8.48 8.19,17.54 10.58,27.19 2.39,9.64 3.77,18.92 4.06,27.91 0,15.01 0,27.33 0,36.98 0,9.64 0,17.69 0,24.29 0,6.53 0.07,11.96 0.22,16.1 0.15,4.13 0.22,8.19 0.22,12.04 -0.65,7.69 -3.12,13.41 -7.39,17.26 -4.35,3.84 -9.57,5.8 -15.59,5.8 -5.44,0 -10.59,-1.81 -15.37,-5.44 -4.78,-3.56 -7.69,-9.06 -8.63,-16.46 0,-15.08 0,-29.87 0,-44.44 0,-14.57 -0.14,-29.58 -0.43,-44.95 -0.65,-10.22 -2.83,-20.15 -6.45,-29.8 -3.7,-9.64 -9.72,-17.11 -18.06,-22.62 -6.38,-1.23 -12.4,-0.94 -17.98,1.01 -5.65,1.89 -11.17,5 -16.6,9.35 -5.44,4.35 -10.87,9.72 -16.31,16.09 -5.44,6.38 -11.02,13.13 -16.82,20.16l0 91.86zm196.85 -147.91c-6.09,-3.56 -10.37,-7.04 -12.76,-10.37 -2.39,-3.33 -3.63,-6.96 -3.63,-10.8 0,-5.44 2.18,-10.15 6.53,-13.99 4.35,-3.84 10,-5.73 17.04,-5.73 4.79,0 10.3,1.23 16.53,3.84 6.24,2.54 11.46,5.58 15.59,9.13 9.93,-8.05 19.94,-14.43 30.02,-19.21 10.08,-4.86 20.74,-7.25 31.97,-7.25 3.19,0 8.05,0.8 14.65,2.39 6.6,1.59 12.98,4.06 19.22,7.47 6.23,3.33 11.81,7.61 16.6,12.91 4.78,5.3 7.18,11.46 7.18,18.49 0,5.73 -2.1,10.44 -6.45,14.14 -4.35,3.7 -9.57,5.51 -15.66,5.51 -4.42,0 -8.12,-0.94 -11.02,-2.83 -2.9,-1.89 -5.8,-4.06 -8.63,-6.53 -2.25,-2.17 -4.93,-4.28 -7.98,-6.31 -3.05,-2.03 -5.8,-3.04 -8.41,-3.04 -3.48,0 -7.69,1.3 -12.47,3.84 -4.79,2.54 -9.64,5.58 -14.43,9.13 -4.78,3.48 -9.5,7.4 -14.21,11.74 -4.64,4.35 -8.56,8.05 -11.75,11.31l0 125.8c-0.29,7.98 -2.97,13.92 -7.9,17.76 -4.93,3.84 -10.15,5.73 -15.59,5.73 -5.72,0 -10.87,-1.81 -15.37,-5.51 -4.42,-3.7 -7.18,-9.21 -8.12,-16.6l0 -150.59 -0.94 -0.43zm242.53 147.4c-0.36,8.05 -2.9,13.92 -7.69,17.76 -4.79,3.84 -10.08,5.8 -15.81,5.8 -5.73,0 -10.88,-1.74 -15.37,-5.29 -4.43,-3.55 -7.18,-8.99 -8.12,-16.31l-1.45 -182.71c1.59,-6.67 4.5,-11.74 8.63,-15.08 4.13,-3.41 9.14,-5.07 14.87,-5.07 5.15,0 9.93,1.52 14.35,4.57 4.5,3.04 7.54,7.76 9.13,14.14l1.45 182.2zm-51.84 -257.02c0,-7.4 2.61,-13.7 7.91,-19 5.29,-5.3 11.6,-7.98 19,-7.98 7.69,0 14.21,2.68 19.5,7.98 5.3,5.29 7.91,11.6 7.91,19 0,7.39 -2.61,13.7 -7.91,18.85 -5.29,5.15 -11.81,7.69 -19.5,7.69 -7.4,0 -13.7,-2.54 -19,-7.69 -5.3,-5.15 -7.91,-11.46 -7.91,-18.85zm96.14 238.46c-4.5,-9.28 -4.64,-17.11 -0.29,-23.35 4.35,-6.24 10.66,-9.35 19,-9.35 5.44,0 11.38,2.1 17.76,6.24 6.74,8.99 14.79,16.53 24.07,22.62 9.28,6.09 19.07,8.12 29.29,6.23 4.86,-0.94 9.06,-2.83 12.76,-5.51 3.7,-2.76 6.38,-5.87 8.19,-9.43 1.74,-3.48 2.61,-7.32 2.61,-11.53 0,-4.13 -1.09,-7.98 -3.33,-11.53 -2.9,-4.49 -6.02,-7.97 -9.43,-10.58 -3.33,-2.54 -6.89,-4.5 -10.51,-5.73 -3.7,-1.31 -7.25,-2.25 -10.59,-2.9 -3.41,-0.65 -6.52,-1.45 -9.43,-2.39 -4.79,-1.31 -9.57,-2.69 -14.35,-4.06 -4.86,-1.45 -9.5,-3.33 -14,-5.58 -4.5,-2.25 -8.77,-5 -12.98,-8.41 -4.13,-3.33 -8.12,-7.61 -11.96,-12.69 -3.55,-4.86 -6.31,-10.08 -8.19,-15.66 -1.96,-5.58 -2.9,-10.8 -2.9,-15.59 0,-6.74 1.3,-13.63 3.84,-20.67 2.54,-7.1 6.02,-13.56 10.37,-19.5 4.28,-5.94 9.43,-11.02 15.37,-15.37 5.94,-4.35 12.26,-7.32 19,-8.92 13.41,-3.48 27.48,-3.99 42.06,-1.45 14.57,2.61 27.62,7.1 39.15,13.48 4.5,3.19 7.83,6.6 10.08,10.08 2.25,3.55 3.41,6.89 3.41,10.08 0,3.84 -1.09,7.32 -3.12,10.37 -2.1,3.05 -4.86,5.51 -8.19,7.47 -3.34,1.89 -7.18,2.83 -11.53,2.83 -4.35,0 -8.92,-1.23 -13.7,-3.84 -3.84,-1.89 -9.21,-3.7 -16.09,-5.51 -6.89,-1.74 -13.7,-2.39 -20.45,-1.89 -6.74,0.43 -12.33,2.61 -16.82,6.45 -4.5,3.84 -6.24,10.3 -5.3,19.21 1.96,3.55 4.28,6.53 6.96,8.92 2.76,2.39 5.8,4.43 9.14,6.02 3.41,1.59 6.96,2.97 10.8,4.06 3.84,1.16 7.54,2.18 11.09,3.12 9.93,2.9 19.07,6.16 27.41,9.86 8.33,3.7 15.52,8.26 21.61,13.7 6.09,5.44 10.8,12.04 14.21,19.72 3.33,7.69 5,16.97 5,27.91 0,8.63 -1.89,17.04 -5.73,25.23 -3.84,8.12 -8.92,15.44 -15.15,21.82 -6.24,6.45 -13.41,11.53 -21.39,15.37 -8.05,3.84 -16.02,5.8 -24.07,5.8 -17.91,0 -35.38,-3.99 -52.35,-12.04 -17.04,-7.98 -30.6,-19.07 -40.89,-33.13l-0.43 0zm211.35 -130.58c-8.05,-1.31 -14.07,-3.85 -18.06,-7.69 -3.98,-3.84 -6.02,-8.26 -6.02,-13.41 0,-5.15 2.17,-9.93 6.45,-14.35 4.35,-4.5 10.87,-6.74 19.5,-6.74l22.11 0 0 -73.74c1.59,-6.74 4.57,-11.81 8.85,-15.15 4.35,-3.41 9.2,-5.07 14.65,-5.07 5.15,0 9.93,1.52 14.35,4.57 4.5,3.05 7.54,7.83 9.13,14.21l0 75.19 42.27 0c7.11,1.89 12.25,4.79 15.66,8.63 3.33,3.84 5.07,7.98 5.07,12.47 0,10.22 -7.4,17.26 -22.11,21.1l-40.89 0 0 88.31c0,9.93 0.07,19.87 0.22,29.8 0.14,9.93 0.22,19.87 0.22,29.8 0,7.98 -2.54,13.92 -7.69,17.76 -5.07,3.84 -10.37,5.73 -15.81,5.73 -5.44,0 -10.44,-1.74 -15.08,-5.29 -4.64,-3.48 -7.47,-8.92 -8.41,-16.31 0,-12.18 -0.07,-24.72 -0.22,-37.7 -0.15,-12.98 -0.22,-25.81 -0.22,-38.65l0 -73.44 -24 0zm221.21 149.14c-0.36,8.05 -2.9,13.92 -7.69,17.76 -4.79,3.84 -10.08,5.8 -15.81,5.8 -5.73,0 -10.88,-1.74 -15.37,-5.29 -4.43,-3.55 -7.18,-8.99 -8.12,-16.31l-1.45 -182.71c1.59,-6.67 4.5,-11.74 8.63,-15.08 4.13,-3.41 9.14,-5.07 14.87,-5.07 5.15,0 9.93,1.52 14.35,4.57 4.5,3.04 7.54,7.76 9.13,14.14l1.45 182.2zm-51.84 -257.02c0,-7.4 2.61,-13.7 7.91,-19 5.29,-5.3 11.6,-7.98 19,-7.98 7.69,0 14.21,2.68 19.5,7.98 5.3,5.29 7.91,11.6 7.91,19 0,7.39 -2.61,13.7 -7.91,18.85 -5.29,5.15 -11.81,7.69 -19.5,7.69 -7.4,0 -13.7,-2.54 -19,-7.69 -5.3,-5.15 -7.91,-11.46 -7.91,-18.85zm292.85 251.66c1.88,4.79 2.32,9.35 1.23,13.7 -1.16,4.28 -3.41,7.83 -6.74,10.59 -3.41,2.68 -7.61,4.28 -12.76,4.78 -5.07,0.51 -10.52,-0.72 -16.31,-3.63 -2.54,-2.54 -5,-5.22 -7.47,-7.9 -2.39,-2.76 -4.35,-5.37 -5.94,-7.98 -11.53,8.7 -22.4,14.21 -32.48,16.61 -10.08,2.39 -21.03,3.62 -32.92,3.62 -8.63,0 -17.04,-0.87 -25.23,-2.61 -8.19,-1.81 -16.46,-5.44 -24.8,-10.87 -12.18,-8.63 -20.81,-18.93 -25.96,-30.74 -5.07,-11.89 -7.69,-24.36 -7.69,-37.56 0,-13.41 2.03,-26.17 6.02,-38.21 3.99,-12.04 9.57,-23.28 16.61,-33.64 7.03,-10.44 15.15,-20.01 24.29,-28.64 9.13,-8.63 19,-16.31 29.51,-23.06 2.25,-1.3 5.44,-2.75 9.43,-4.35 3.99,-1.59 8.56,-3.12 13.7,-4.57 5.07,-1.45 10.37,-2.54 15.88,-3.33 5.44,-0.8 10.73,-1.23 15.81,-1.23 9.93,0 18.85,1.23 26.68,3.63 7.9,2.39 13.56,8.26 17.04,17.54 0,9.65 0,17.62 0,24.07 0,6.38 -0.07,11.74 -0.22,16.09 -0.14,4.28 -0.22,7.9 -0.22,10.8 0,2.9 0,5.58 0,8.19 0,11.17 0.29,22.84 0.94,34.87 0.65,11.96 1.74,23.78 3.33,35.31 0.65,3.55 2.17,7.69 4.57,12.54 2.39,4.78 4.86,9.13 7.47,12.98l-0.51 0c2.25,3.48 4.13,6.38 5.51,8.63 1.45,2.25 1.88,3.7 1.23,4.35zm-65.18 -34.29c-2.54,-11.24 -4.13,-22.84 -4.71,-34.87 -0.65,-12.04 -0.94,-23.93 -0.94,-35.82 0,-8.34 0.15,-15.88 0.44,-22.62 0.29,-6.67 0.43,-13.27 0.43,-19.65 -5.37,0.58 -10.87,2.03 -16.46,4.28 -5.66,2.25 -9.57,3.84 -11.82,4.86 -8.63,3.84 -16.39,9.28 -23.28,16.31 -6.89,7.03 -12.61,14.93 -17.11,23.56 -4.5,8.63 -7.76,17.69 -9.86,27.11 -2.03,9.5 -2.32,18.71 -0.73,27.7 1.02,7.04 3.48,12.91 7.47,17.55 3.99,4.64 8.78,8.12 14.21,10.59 5.44,2.39 11.31,3.55 17.55,3.55 6.23,0 12.25,-0.94 17.98,-2.83 7.1,-4.2 16.02,-10.8 26.83,-19.72zm281.82 40.96c-0.29,7.97 -2.97,13.92 -7.98,17.76 -5,3.84 -10.22,5.8 -15.73,5.8 -5.8,0 -11.02,-1.74 -15.66,-5.29 -4.71,-3.48 -7.54,-8.92 -8.48,-16.31 0,-3.55 0,-7.47 0,-11.74 0,-4.35 -0.07,-10.08 -0.22,-17.33 -0.14,-7.18 -0.22,-16.46 -0.22,-27.84 0,-11.31 0,-26.17 0,-44.37 0,-4.2 0.15,-9.5 0.51,-15.88 0.29,-6.38 0,-12.69 -1.02,-18.93 -0.94,-6.31 -2.76,-11.6 -5.51,-16.09 -2.69,-4.5 -6.89,-6.74 -12.69,-6.74 -9.57,0 -18.93,2.68 -27.99,8.12 -9.13,5.44 -17.33,13.48 -24.65,24 -2.61,3.84 -4.57,7.47 -6.02,10.8 -1.45,3.33 -2.46,8.27 -3.12,14.65 0,16.31 0,32.41 0,48.22 0,15.81 0.15,31.9 0.44,48.22 -0.29,7.97 -2.9,13.92 -7.69,17.76 -4.79,3.84 -10.08,5.72 -15.81,5.72 -5.44,0 -10.44,-1.74 -15.08,-5.29 -4.64,-3.48 -7.47,-8.99 -8.41,-16.31l0 -86.42c0,-14.14 -0.07,-28.28 -0.22,-42.56 -0.15,-14.21 -0.22,-29 -0.22,-44.37 1.59,-7.11 4.57,-12.18 8.92,-15.44 4.28,-3.19 9.21,-4.78 14.65,-4.78 4.42,0 8.92,1.38 13.41,4.13 4.5,2.69 7.54,6.74 9.13,12.26 9.28,-6.53 19.22,-11.6 29.8,-15.3 10.52,-3.7 21.39,-5.58 32.63,-5.58 12.18,0 23.78,2.9 34.8,8.63 11.02,5.8 19.94,14.65 26.68,26.46 3.19,5.8 5.22,11.89 6.24,18.27 0.94,6.45 1.45,13.05 1.45,19.8 0,6.67 -0.36,13.34 -1.01,19.94 -0.65,6.6 -0.94,12.76 -0.94,18.49l0 87.59zm216.5 -21.24c-2.25,-4.79 -3.33,-9.28 -3.33,-13.41 0,-5.8 2.1,-10.51 6.23,-14.21 4.21,-3.7 9.5,-5.51 15.88,-5.51 3.55,0 6.89,0.65 9.93,1.89 3.04,1.3 6.16,3.04 9.35,5.29 11.89,10.3 23.42,17.91 34.66,22.84 11.24,5 24.58,7.47 40.02,7.47 17.33,0 29.8,-3.63 37.34,-10.8 7.54,-7.25 11.6,-16.46 12.25,-27.63 0.29,-10.87 -2.03,-19.79 -6.96,-26.68 -5,-6.89 -11.24,-12.25 -18.78,-16.09 -7.54,-3.84 -15.66,-6.74 -24.29,-8.63 -8.7,-1.96 -16.39,-3.41 -23.13,-4.35 -10.87,-1.96 -21.53,-4.64 -31.97,-8.19 -10.44,-3.48 -19.65,-8.12 -27.7,-13.92 -7.98,-5.73 -14.43,-12.91 -19.21,-21.39 -4.79,-8.48 -7.03,-18.63 -6.74,-30.52 0.29,-15.01 4.28,-27.91 11.75,-38.65 7.54,-10.73 17.11,-19.43 28.64,-26.17 11.53,-6.74 24.14,-11.75 37.99,-14.94 13.78,-3.19 27.33,-4.78 40.82,-4.78 11.24,0 21.31,1.09 30.31,3.33 8.92,2.25 17.62,5.58 25.96,10.08 4.42,2.54 7.76,5.58 9.79,9.06 2.1,3.55 3.12,7.03 3.12,10.58 0,2.54 -0.58,5.37 -1.89,8.41 -1.3,2.97 -3.12,5.58 -5.51,7.69 -2.39,2.03 -5.37,3.55 -8.92,4.57 -3.55,0.94 -7.39,0.58 -11.53,-1.02 -8.34,-2.54 -16.67,-4.86 -25.01,-6.96 -8.34,-2.1 -16.97,-3.12 -25.96,-3.12 -6.74,0 -13.7,0.65 -20.95,1.96 -7.18,1.24 -13.78,3.48 -19.72,6.67 -5.87,3.26 -10.94,7.32 -15.08,12.25 -4.2,5 -6.6,11.31 -7.25,19 -0.65,6.45 1.59,11.89 6.74,16.39 5.15,4.42 10.73,8.05 16.82,10.8 6.09,2.68 11.67,4.64 16.82,5.73 5.15,1.16 7.54,1.67 7.25,1.67 13.12,2.9 25.37,5.87 36.76,8.92 11.39,3.04 24,8.41 37.78,16.09 12.18,6.74 21.46,15.95 27.84,27.62 6.45,11.75 9.64,24.58 9.64,38.72 0,14.43 -2.61,26.97 -7.9,37.7 -5.29,10.73 -12.47,19.65 -21.46,26.68 -8.99,7.03 -19.21,12.4 -30.74,16.09 -11.6,3.7 -23.56,5.73 -36.11,6.02 -10.87,0.29 -21.89,-0.65 -32.92,-2.9 -11.09,-2.25 -21.61,-5.44 -31.54,-9.57 -9.93,-4.13 -19.07,-9.13 -27.41,-14.86 -8.34,-5.73 -15.37,-11.96 -21.17,-18.7l-0.51 -0.51zm349.61 -172.7c13.41,0 25.37,2.9 35.81,8.63 10.37,5.8 19.21,13.41 26.39,22.84 7.25,9.5 12.69,20.23 16.39,32.27 3.7,11.96 5.51,24.22 5.51,36.76 0,5.44 -0.29,10.51 -0.94,15.15 -0.65,4.64 -1.45,9.35 -2.39,14.14 -3.55,13.19 -8.77,25.52 -15.66,37.05 -6.89,11.53 -15.01,21.54 -24.29,30.02 -9.28,8.48 -19.58,15.15 -30.96,20.01 -11.38,4.79 -23.35,7.18 -35.81,7.18 -13.13,0 -25.09,-2.9 -35.82,-8.63 -10.73,-5.8 -19.79,-13.27 -27.19,-22.41 -7.32,-9.13 -13.05,-19.36 -17.04,-30.74 -3.99,-11.38 -6.02,-22.84 -6.02,-34.37 0,-16.02 2.97,-31.69 8.92,-46.91 5.87,-15.23 13.92,-28.86 24,-40.82 10.08,-12.04 21.97,-21.75 35.6,-29.07 13.63,-7.4 28.13,-11.09 43.5,-11.09zm-61.92 103.39c-1.89,7.4 -2.83,15.59 -2.83,24.58 0,8.99 1.23,17.4 3.84,25.23 2.54,7.9 6.74,14.57 12.69,20.01 5.94,5.44 13.85,8.19 23.78,8.19 9.65,0 18.2,-2.83 25.74,-8.41 7.54,-5.66 13.92,-12.54 19.21,-20.74 5.3,-8.19 9.43,-17.04 12.26,-26.46 2.9,-9.5 4.35,-18.06 4.35,-25.81 0,-7.04 -0.8,-14.07 -2.39,-20.96 -1.59,-6.89 -4.06,-13.05 -7.47,-18.56 -3.33,-5.44 -7.47,-9.86 -12.25,-13.2 -4.79,-3.41 -10.22,-5.07 -16.31,-5.07 -7.69,0 -14.94,2.03 -21.68,6.02 -6.74,3.98 -12.69,8.99 -17.98,14.93 -5.29,5.94 -9.71,12.54 -13.27,19.72 -3.48,7.25 -6.09,14.07 -7.69,20.52zm362.95 90.56c-0.29,7.97 -2.97,13.92 -7.98,17.76 -5,3.84 -10.22,5.8 -15.73,5.8 -5.8,0 -11.02,-1.74 -15.66,-5.29 -4.71,-3.48 -7.54,-8.92 -8.48,-16.31 0,-3.55 0,-7.47 0,-11.74 0,-4.35 -0.07,-10.08 -0.22,-17.33 -0.14,-7.18 -0.22,-16.46 -0.22,-27.84 0,-11.31 0,-26.17 0,-44.37 0,-4.2 0.15,-9.5 0.51,-15.88 0.29,-6.38 0,-12.69 -1.02,-18.93 -0.94,-6.31 -2.76,-11.6 -5.51,-16.09 -2.69,-4.5 -6.89,-6.74 -12.69,-6.74 -9.57,0 -18.93,2.68 -27.99,8.12 -9.13,5.44 -17.33,13.48 -24.65,24 -2.61,3.84 -4.57,7.47 -6.02,10.8 -1.45,3.33 -2.46,8.27 -3.12,14.65 0,16.31 0,32.41 0,48.22 0,15.81 0.15,31.9 0.44,48.22 -0.29,7.97 -2.9,13.92 -7.69,17.76 -4.79,3.84 -10.08,5.72 -15.81,5.72 -5.44,0 -10.44,-1.74 -15.08,-5.29 -4.64,-3.48 -7.47,-8.99 -8.41,-16.31l0 -86.42c0,-14.14 -0.07,-28.28 -0.22,-42.56 -0.15,-14.21 -0.22,-29 -0.22,-44.37 1.59,-7.11 4.57,-12.18 8.92,-15.44 4.28,-3.19 9.21,-4.78 14.65,-4.78 4.42,0 8.92,1.38 13.41,4.13 4.5,2.69 7.54,6.74 9.13,12.26 9.28,-6.53 19.22,-11.6 29.8,-15.3 10.52,-3.7 21.39,-5.58 32.63,-5.58 12.18,0 23.78,2.9 34.8,8.63 11.02,5.8 19.94,14.65 26.68,26.46 3.19,5.8 5.22,11.89 6.24,18.27 0.94,6.45 1.45,13.05 1.45,19.8 0,6.67 -0.36,13.34 -1.01,19.94 -0.65,6.6 -0.94,12.76 -0.94,18.49l0 87.59zm54.6 90.05c0,-6.67 3.19,-12.11 9.57,-16.31 6.45,-4.13 14.79,-4.64 25.02,-1.45 18.63,12.18 36.4,18.27 53.44,18.27 18.27,0 31.32,-4.28 39.15,-12.76 7.91,-8.48 11.82,-20.88 11.82,-37.19l0.07 -25.96 -19.28 6.24c-7.69,1.96 -14.07,3.26 -19.22,4.06 -5.15,0.8 -10.3,1.23 -15.37,1.23 -14.43,0 -27.7,-3.12 -39.73,-9.35 -12.04,-6.24 -22.19,-14.43 -30.52,-24.5 -8.34,-10.08 -14.86,-21.46 -19.5,-34.08 -4.64,-12.69 -6.96,-25.59 -6.96,-38.72 0,-7.32 0.65,-14.86 1.96,-22.55 1.23,-7.69 3.33,-15.23 6.23,-22.62 3.48,-8.92 8.41,-17.4 14.65,-25.45 6.24,-7.98 13.41,-14.86 21.61,-20.67 8.19,-5.73 16.89,-10.3 26.18,-13.63 9.28,-3.41 18.92,-5.07 28.85,-5.07 10.88,0 20.74,1.81 29.58,5.51 8.77,3.7 17.33,8.26 25.67,13.7 4.5,-6.38 10.73,-9.64 18.78,-9.64 5.44,0 10.37,1.52 14.86,4.57 4.5,3.04 7.54,7.83 9.14,14.21l0 201.27c0,16.97 -2.61,31.61 -7.91,43.94 -5.29,12.33 -15.52,23.49 -30.52,33.43 -6.09,3.84 -12.83,7.32 -20.23,10.37 -7.32,3.04 -14.72,4.86 -22.11,5.51 -7.32,0.94 -16.75,1.02 -28.06,0.22 -11.38,-0.8 -22.69,-2.9 -33.93,-6.24 -11.17,-3.33 -20.95,-7.91 -29.29,-13.7 -8.33,-5.8 -12.98,-13.27 -13.92,-22.62zm138.99 -126.44c0,-14.35 -0.07,-28.42 -0.22,-42.05 -0.15,-13.63 -0.22,-27.63 -0.22,-42.06 -6.45,-5.73 -13.27,-11.53 -20.44,-17.26 -7.25,-5.8 -15.01,-8.99 -23.42,-9.64 -13.12,-0.94 -23.64,0.94 -31.54,5.73 -7.83,4.86 -13.92,10.87 -18.06,18.05 -4.2,7.25 -6.81,14.65 -7.98,22.33 -1.09,7.76 -1.67,13.99 -1.67,18.78 0,10.22 1.45,19.43 4.35,27.63 2.9,8.19 6.81,15.08 11.74,20.66 5,5.66 10.88,9.93 17.62,12.98 6.74,3.04 13.78,4.57 21.17,4.57 14.79,0 30.96,-6.52 48.65,-19.72zm87.58 16.53c-4.5,-9.28 -4.64,-17.11 -0.29,-23.35 4.35,-6.24 10.66,-9.35 19,-9.35 5.44,0 11.38,2.1 17.76,6.24 6.74,8.99 14.79,16.53 24.07,22.62 9.28,6.09 19.07,8.12 29.29,6.23 4.86,-0.94 9.06,-2.83 12.76,-5.51 3.7,-2.76 6.38,-5.87 8.19,-9.43 1.74,-3.48 2.61,-7.32 2.61,-11.53 0,-4.13 -1.09,-7.98 -3.33,-11.53 -2.9,-4.49 -6.02,-7.97 -9.43,-10.58 -3.33,-2.54 -6.89,-4.5 -10.51,-5.73 -3.7,-1.31 -7.25,-2.25 -10.59,-2.9 -3.41,-0.65 -6.52,-1.45 -9.43,-2.39 -4.79,-1.31 -9.57,-2.69 -14.35,-4.06 -4.86,-1.45 -9.5,-3.33 -14,-5.58 -4.5,-2.25 -8.77,-5 -12.98,-8.41 -4.13,-3.33 -8.12,-7.61 -11.96,-12.69 -3.55,-4.86 -6.31,-10.08 -8.19,-15.66 -1.96,-5.58 -2.9,-10.8 -2.9,-15.59 0,-6.74 1.3,-13.63 3.84,-20.67 2.54,-7.1 6.02,-13.56 10.37,-19.5 4.28,-5.94 9.43,-11.02 15.37,-15.37 5.94,-4.35 12.26,-7.32 19,-8.92 13.41,-3.48 27.48,-3.99 42.06,-1.45 14.57,2.61 27.62,7.1 39.15,13.48 4.5,3.19 7.83,6.6 10.08,10.08 2.25,3.55 3.41,6.89 3.41,10.08 0,3.84 -1.09,7.32 -3.12,10.37 -2.1,3.05 -4.86,5.51 -8.19,7.47 -3.34,1.89 -7.18,2.83 -11.53,2.83 -4.35,0 -8.92,-1.23 -13.7,-3.84 -3.84,-1.89 -9.21,-3.7 -16.09,-5.51 -6.89,-1.74 -13.7,-2.39 -20.45,-1.89 -6.74,0.43 -12.33,2.61 -16.82,6.45 -4.5,3.84 -6.24,10.3 -5.3,19.21 1.96,3.55 4.28,6.53 6.96,8.92 2.76,2.39 5.8,4.43 9.14,6.02 3.41,1.59 6.96,2.97 10.8,4.06 3.84,1.16 7.54,2.18 11.09,3.12 9.93,2.9 19.07,6.16 27.41,9.86 8.33,3.7 15.52,8.26 21.61,13.7 6.09,5.44 10.8,12.04 14.21,19.72 3.33,7.69 5,16.97 5,27.91 0,8.63 -1.89,17.04 -5.73,25.23 -3.84,8.12 -8.92,15.44 -15.15,21.82 -6.24,6.45 -13.41,11.53 -21.39,15.37 -8.05,3.84 -16.02,5.8 -24.07,5.8 -17.91,0 -35.38,-3.99 -52.35,-12.04 -17.04,-7.98 -30.6,-19.07 -40.89,-33.13l-0.43 0z"/>
 </g>
</svg>
